<?xml version="1.0" standalone="no"?>
<!DOCTYPE svg PUBLIC "-//W3C//DTD SVG 20010904//EN"
 "http://www.w3.org/TR/2001/REC-SVG-20010904/DTD/svg10.dtd">
<svg version="1.0" xmlns="http://www.w3.org/2000/svg"
 width="512.000000pt" height="512.000000pt" viewBox="0 0 512.000000 512.000000"
 preserveAspectRatio="xMidYMid meet">
<metadata>
Created by potrace 1.14, written by Peter Selinger 2001-2017
</metadata>
<g transform="translate(0.000000,512.000000) scale(0.100000,-0.100000)"
fill="#000000" stroke="none">
<path d="M1151 4859 c-99 -19 -182 -52 -206 -81 -21 -24 -52 -104 -61 -155 -3
-14 -42 -146 -54 -183 -11 -33 -43 -144 -74 -260 -14 -52 -37 -136 -50 -186
-14 -50 -44 -167 -66 -260 -50 -206 -50 -203 -56 -234 -3 -14 -9 -38 -14 -55
-5 -16 -11 -43 -14 -60 -6 -36 -30 -149 -56 -261 -11 -45 -22 -97 -25 -116 -3
-18 -12 -67 -20 -108 -8 -41 -17 -91 -20 -110 -3 -19 -10 -57 -15 -85 -6 -27
-12 -61 -15 -75 -3 -14 -14 -88 -25 -165 -12 -77 -23 -151 -25 -165 -2 -14 -7
-47 -10 -75 -4 -27 -9 -61 -11 -75 -6 -44 -23 -203 -30 -280 -2 -30 -6 -71 -9
-90 -7 -54 -17 -179 -20 -245 -1 -33 -6 -116 -11 -185 -11 -180 -9 -396 5
-462 15 -70 44 -114 99 -151 30 -20 42 -35 42 -53 0 -31 22 -85 45 -107 9 -10
18 -23 19 -30 2 -6 8 -31 15 -54 l12 -43 413 0 414 0 7 28 c5 15 9 108 10 207
2 169 10 399 20 580 3 44 7 125 10 180 3 55 7 134 10 175 4 41 8 102 10 135
15 201 21 269 30 365 2 25 7 74 10 110 3 36 8 88 10 115 3 28 7 66 10 85 3 19
7 60 10 90 3 30 7 71 10 90 2 19 9 73 15 120 10 82 13 104 26 180 3 19 8 49
10 65 4 39 17 128 20 138 1 4 2 19 3 35 2 24 3 25 11 7 7 -17 43 -160 55 -220
12 -58 203 -734 239 -845 13 -41 44 -141 70 -221 25 -80 54 -157 65 -170 10
-14 43 -38 72 -53 66 -36 150 -39 218 -8 l43 20 36 -24 c19 -13 47 -25 61 -25
47 -3 96 2 126 11 21 7 43 6 75 -4 38 -11 53 -11 97 0 123 32 150 60 193 202
17 56 29 77 53 94 18 12 38 29 44 38 12 13 37 86 48 136 53 239 204 648 346
939 73 149 208 405 213 405 2 0 -6 -37 -16 -82 -21 -92 -19 -84 -53 -258 -27
-138 -51 -274 -60 -335 -3 -22 -10 -65 -15 -95 -5 -30 -11 -77 -15 -105 -3
-27 -8 -63 -11 -78 -7 -35 -9 -47 -23 -177 -6 -58 -14 -121 -16 -140 -2 -19
-7 -60 -10 -90 -3 -30 -8 -71 -10 -90 -4 -34 -9 -95 -20 -250 -3 -41 -7 -100
-10 -130 -18 -228 -26 -884 -13 -1013 4 -38 15 -83 26 -100 l18 -32 510 -3
509 -2 -4 62 c-2 35 -4 286 -4 558 0 520 6 725 28 990 2 30 7 95 10 143 4 48
8 96 9 105 2 9 7 57 11 106 4 49 8 98 10 110 2 11 6 50 9 86 4 36 8 75 10 85
2 11 7 47 11 80 4 32 8 66 10 75 1 8 6 40 9 71 4 31 8 65 10 75 2 11 9 54 16
97 6 43 13 88 15 100 3 12 11 62 20 111 8 49 19 105 24 125 6 20 12 50 14 66
3 17 10 50 16 75 5 25 13 61 16 80 5 28 36 155 89 360 3 8 9 33 15 55 5 22 28
101 51 175 61 201 64 216 51 276 -19 82 -58 134 -128 170 -55 28 -67 31 -124
26 -35 -3 -77 -4 -94 -4 -149 6 -161 5 -202 -16 -27 -14 -58 -21 -90 -21 -107
3 -169 -33 -225 -129 l-25 -42 -23 20 c-13 11 -28 20 -33 20 -6 0 -18 6 -26
14 -29 25 -73 32 -135 23 -34 -4 -100 -9 -147 -10 -54 -1 -92 -7 -102 -15 -10
-9 -22 -10 -34 -5 -37 19 -91 14 -172 -16 -133 -49 -162 -70 -222 -163 -68
-107 -209 -338 -209 -343 0 -2 -14 -28 -31 -57 -35 -59 -171 -327 -217 -428
-80 -174 -123 -262 -128 -257 -4 4 -22 63 -39 127 -11 43 -48 198 -51 215 -2
11 -6 29 -8 40 -18 79 -78 367 -82 395 -3 19 -16 89 -29 155 -22 109 -27 123
-57 150 -20 18 -70 44 -124 63 -80 29 -94 37 -121 76 -29 41 -109 96 -141 96
-9 0 -50 17 -92 38 -60 29 -83 46 -104 79 -15 23 -50 56 -79 74 -45 28 -62 32
-127 34 -58 1 -83 6 -110 23 -37 23 -89 27 -169 11z"/>
</g>
</svg>
